<svg width="473" height="92" viewBox="0 0 473 92" version="1.1" xmlns="http://www.w3.org/2000/svg" xmlns:xlink="http://www.w3.org/1999/xlink">
<title>logoshadow</title>
<desc>Created using Figma</desc>
<g id="Canvas" transform="translate(-3675 385)">
<clipPath id="clip-0" clip-rule="evenodd">
<path d="M 3675 -385L 4148 -385L 4148 -293L 3675 -293L 3675 -385Z" fill="#FFFFFF"/>
</clipPath>
<g id="logoshadow" clip-path="url(#clip-0)">
<g id="logotype" filter="url(#filter0_d)">
<g id="g4313">
<g id="circle3420">
<use xlink:href="#path0_fill" transform="matrix(0.0970141 0 0 0.0970141 3683 -378)" fill="#F55D53"/>
</g>
<g id="g4308">
<g id="polygon3422">
<use xlink:href="#path1_fill" transform="matrix(0.0970141 0 0 0.0970141 3703.6 -365.631)" fill="#FFFFFF"/>
</g>
<g id="polygon3424">
<use xlink:href="#path2_fill" transform="matrix(0.0970141 0 0 0.0970141 3703.6 -365.631)" fill="#E6E9EE"/>
</g>
<g id="polygon3426">
<use xlink:href="#path3_fill" transform="matrix(0.0970141 0 0 0.0970141 3719.09 -331.524)" fill="#ACB3BA"/>
</g>
</g>
</g>
<g id="flowRoot3472">
<g id="path4368">
<use xlink:href="#path4_fill" transform="matrix(0.0936526 0 0 0.0936526 3767.63 -377.107)" fill="#F5F5F5"/>
<use xlink:href="#path5_stroke" transform="matrix(0.0936526 0 0 0.0936526 3767.63 -377.107)" fill="#F5F5F5"/>
</g>
<g id="path4370">
<use xlink:href="#path6_fill" transform="matrix(0.0936526 0 0 0.0936526 3815.88 -376.453)" fill="#F5F5F5"/>
<use xlink:href="#path7_stroke" transform="matrix(0.0936526 0 0 0.0936526 3815.88 -376.453)" fill="#F5F5F5"/>
</g>
<g id="path4372">
<use xlink:href="#path8_fill" transform="matrix(0.0936526 0 0 0.0936526 3857.22 -376.453)" fill="#F5F5F5"/>
<use xlink:href="#path9_stroke" transform="matrix(0.0936526 0 0 0.0936526 3857.22 -376.453)" fill="#F5F5F5"/>
</g>
<g id="path4374">
<use xlink:href="#path10_fill" transform="matrix(0.0936526 0 0 0.0936526 3926.87 -376.453)" fill="#F5F5F5"/>
<use xlink:href="#path11_stroke" transform="matrix(0.0936526 0 0 0.0936526 3926.87 -376.453)" fill="#F5F5F5"/>
</g>
<g id="path4376">
<use xlink:href="#path12_fill" transform="matrix(0.0936526 0 0 0.0936526 3951.08 -376.453)" fill="#F5F5F5"/>
<use xlink:href="#path13_stroke" transform="matrix(0.0936526 0 0 0.0936526 3951.08 -376.453)" fill="#F5F5F5"/>
</g>
<g id="path4378">
<use xlink:href="#path14_fill" transform="matrix(0.0936526 0 0 0.0936526 4005.47 -377.201)" fill="#F5F5F5"/>
<use xlink:href="#path15_stroke" transform="matrix(0.0936526 0 0 0.0936526 4005.47 -377.201)" fill="#F5F5F5"/>
</g>
<g id="path4380">
<use xlink:href="#path16_fill" transform="matrix(0.0936526 0 0 0.0936526 4059.69 -376.453)" fill="#F5F5F5"/>
<use xlink:href="#path17_stroke" transform="matrix(0.0936526 0 0 0.0936526 4059.69 -376.453)" fill="#F5F5F5"/>
</g>
<g id="path4382">
<use xlink:href="#path18_fill" transform="matrix(0.0936526 0 0 0.0936526 4102.43 -377.107)" fill="#F5F5F5"/>
<use xlink:href="#path19_stroke" transform="matrix(0.0936526 0 0 0.0936526 4102.43 -377.107)" fill="#F5F5F5"/>
</g>
</g>
</g>
</g>
</g>
<defs>
<filter id="filter0_d" filterUnits="userSpaceOnUse" x="3675" y="-378" width="473" height="85" color-interpolation-filters="sRGB">
<feFlood flood-opacity="0" result="BackgroundImageFix"/>
<feColorMatrix in="SourceAlpha" type="matrix" values="0 0 0 0 0 0 0 0 0 0 0 0 0 0 0 0 0 0 255 0"/>
<feOffset dx="0" dy="10"/>
<feGaussianBlur stdDeviation="5"/>
<feColorMatrix type="matrix" values="0 0 0 0 0 0 0 0 0 0 0 0 0 0 0 0 0 0 0.3 0"/>
<feBlend mode="normal" in2="BackgroundImageFix" result="effect1_dropShadow"/>
<feBlend mode="normal" in="SourceGraphic" in2="effect1_dropShadow" result="shape"/>
</filter>
<path id="path0_fill" d="M 704.176 350.464C 704.176 443.413 667.081 532.555 601.051 598.28C 535.022 664.005 445.467 700.929 352.088 700.929C 258.708 700.929 169.153 664.005 103.124 598.28C 37.0949 532.555 7.14078e-14 443.413 0 350.464C 3.6935e-14 257.515 37.0949 168.373 103.124 102.649C 169.153 36.9238 258.708 4.90197e-14 352.088 -5.88236e-14C 445.467 -9.80393e-15 535.022 36.9238 601.051 102.649C 667.081 168.373 704.176 257.515 704.176 350.464L 704.176 350.464Z"/>
<path id="path1_fill" d="M 389.792 270.989L -4.23026e-06 2.10538e-06L 21.0698 428.284L 389.792 270.989Z"/>
<path id="path2_fill" d="M 200.718 351.568L 220.124 432.699L 271.135 321.213L -4.23026e-06 2.10538e-06L 200.718 351.568Z"/>
<path id="path3_fill" d="M 60.4371 82.235L 41.0307 1.6843e-05L -8.46052e-06 17.6612L 60.4371 82.235Z"/>
<path id="path4_fill" d="M 3.43294e-05 16.9711C 46.8031 5.65702 91.9345 -1.12343e-08 135.394 -1.12343e-08C 170.162 -1.12343e-08 201.587 3.99319 229.669 11.9796C 257.751 19.966 281.821 32.6111 301.88 49.9149C 321.938 67.2188 337.316 89.5141 348.014 116.801C 359.381 144.088 365.064 177.032 365.064 215.632C 365.064 263.551 355.703 302.484 336.982 332.433C 318.929 361.717 294.191 384.012 262.766 399.319C 270.789 412.63 280.818 430.932 292.853 454.226C 305.557 476.854 318.261 502.144 330.964 530.096C 344.337 557.383 357.04 585.668 369.075 614.952C 381.779 644.235 392.477 672.188 401.169 698.809L 310.906 698.809C 303.551 678.843 294.191 656.215 282.824 630.925C 272.126 605.634 260.76 580.677 248.725 556.052C 236.69 530.762 224.655 506.803 212.62 484.175C 200.584 460.881 189.887 441.248 180.526 425.275C 169.828 426.606 158.796 427.604 147.43 428.27C 136.063 428.936 124.697 429.268 113.33 429.268L 88.2572 429.268L 88.2572 698.809L 3.43294e-05 698.809L 3.43294e-05 16.9711L 3.43294e-05 16.9711ZM 88.2572 355.394L 126.368 355.394C 172.503 355.394 207.939 345.078 232.678 324.447C 257.417 303.15 269.786 266.878 269.786 215.632C 269.786 189.677 266.443 168.047 259.757 150.743C 253.739 132.774 244.713 118.798 232.678 108.815C 221.312 98.166 207.271 90.5124 190.555 85.8537C 174.508 81.1949 156.456 78.8656 136.397 78.8656C 119.013 78.8656 102.967 79.8639 88.2572 81.8605L 88.2572 355.394L 88.2572 355.394Z"/>
<path id="path5_stroke" d="M 301.88 49.9149L 296.785 55.8202L 296.785 55.8202L 301.88 49.9149ZM 348.014 116.801L 340.753 119.648L 340.783 119.724L 340.815 119.8L 348.014 116.801ZM 336.982 332.433L 330.369 328.299L 330.356 328.32L 330.343 328.341L 336.982 332.433ZM 262.766 399.319L 259.35 392.308L 251.684 396.042L 256.086 403.346L 262.766 399.319ZM 292.853 454.226L 285.924 457.806L 285.987 457.926L 286.053 458.044L 292.853 454.226ZM 330.964 530.096L 323.864 533.323L 323.911 533.427L 323.961 533.528L 330.964 530.096ZM 369.075 614.952L 361.862 617.916L 361.891 617.986L 361.921 618.056L 369.075 614.952ZM 401.169 698.809L 401.169 706.608L 411.92 706.608L 408.583 696.388L 401.169 698.809ZM 310.906 698.809L 303.588 701.505L 305.468 706.608L 310.906 706.608L 310.906 698.809ZM 282.824 630.925L 275.641 633.963L 275.675 634.043L 275.711 634.122L 282.824 630.925ZM 248.725 556.052L 241.682 559.403L 241.7 559.44L 241.718 559.477L 248.725 556.052ZM 212.62 484.175L 205.691 487.755L 205.712 487.796L 205.734 487.837L 212.62 484.175ZM 180.526 425.275L 187.255 421.332L 184.659 416.902L 179.563 417.536L 180.526 425.275ZM 88.2572 429.268L 88.2572 421.469L 80.4582 421.469L 80.4582 429.268L 88.2572 429.268ZM 88.2572 698.809L 88.2572 706.608L 96.0562 706.608L 96.0562 698.809L 88.2572 698.809ZM 3.43294e-05 698.809L -7.79897 698.809L -7.79897 706.608L 3.43294e-05 706.608L 3.43294e-05 698.809ZM 232.678 324.447L 237.673 330.436L 237.72 330.397L 237.766 330.357L 232.678 324.447ZM 259.757 150.743L 252.362 153.22L 252.418 153.388L 252.482 153.554L 259.757 150.743ZM 232.678 108.815L 227.346 114.506L 227.518 114.667L 227.699 114.817L 232.678 108.815ZM 190.555 85.8537L 188.381 93.3434L 188.421 93.3551L 188.461 93.3663L 190.555 85.8537ZM 88.2572 81.8605L 87.2082 74.1323L 80.4582 75.0485L 80.4582 81.8605L 88.2572 81.8605ZM 1.83256 24.5517C 48.2066 13.3287 92.4204 7.78385 135.394 7.799L 135.394 -7.799C 91.4486 -7.78385 45.3996 -2.01466 -1.83249 9.39042L 1.83256 24.5517ZM 135.394 7.799C 169.67 7.78343 200.025 11.634 227.536 19.4811L 231.803 4.47805C 203.15 -3.64764 170.655 -7.78343 135.394 -7.799L 135.394 7.799ZM 227.536 19.4811C 254.855 27.2075 277.432 39.0577 296.785 55.8202L 306.974 44.0096C 286.21 26.1644 260.647 12.7245 231.803 4.47805L 227.536 19.4811ZM 296.785 55.8202C 316.134 72.4278 330.43 93.1757 340.753 119.648L 355.275 113.954C 344.202 85.8525 327.742 62.0097 306.974 44.0096L 296.785 55.8202ZM 340.815 119.8C 351.891 146.264 357.293 177.697 357.265 215.632L 372.863 215.632C 372.834 176.366 366.87 141.912 355.213 113.802L 340.815 119.8ZM 357.265 215.632C 357.265 262.594 348.085 299.958 330.369 328.299L 343.595 336.567C 363.321 305.011 372.863 264.508 372.863 215.632L 357.265 215.632ZM 330.343 328.341C 312.939 356.723 289.83 377.546 259.35 392.308L 266.181 406.331C 298.552 390.478 324.92 366.71 343.621 336.526L 330.343 328.341ZM 256.086 403.346C 264.028 416.518 273.934 434.596 285.924 457.806L 299.782 450.646C 287.703 427.268 277.55 408.742 269.445 395.293L 256.086 403.346ZM 286.053 458.044C 298.67 480.514 311.225 505.508 323.864 533.323L 338.065 526.87C 325.297 498.78 312.444 473.194 299.654 450.408L 286.053 458.044ZM 323.961 533.528C 337.277 560.697 349.875 588.749 361.862 617.916L 376.289 611.987C 364.205 582.588 351.397 554.069 337.968 526.664L 323.961 533.528ZM 361.921 618.056C 374.558 647.182 385.126 674.792 393.755 701.229L 408.583 696.388C 399.828 669.583 389 641.289 376.23 611.848L 361.921 618.056ZM 401.169 691.01L 310.906 691.01L 310.906 706.608L 401.169 706.608L 401.169 691.01ZM 318.224 696.113C 310.815 676.004 301.352 653.125 289.938 627.727L 275.711 634.122C 287.03 659.304 296.287 681.682 303.588 701.505L 318.224 696.113ZM 290.007 627.886C 279.267 602.499 267.813 577.348 255.732 552.628L 241.718 559.477C 253.707 584.006 264.985 608.77 275.641 633.963L 290.007 627.886ZM 255.767 552.701C 243.696 527.336 231.582 503.221 219.505 480.512L 205.734 487.837C 217.727 510.384 229.684 534.188 241.682 559.403L 255.767 552.701ZM 219.548 480.595C 207.473 457.225 196.676 437.41 187.255 421.332L 173.797 429.218C 183.097 445.086 193.695 464.537 205.691 487.755L 219.548 480.595ZM 179.563 417.536C 168.995 418.852 158.217 419.827 146.974 420.484L 147.885 436.056C 159.375 435.382 170.661 434.361 181.489 433.014L 179.563 417.536ZM 146.974 420.484C 135.721 421.144 124.583 421.47 113.33 421.469L 113.33 437.067C 124.811 437.066 136.405 436.727 147.885 436.056L 146.974 420.484ZM 113.33 421.469L 88.2572 421.469L 88.2572 437.067L 113.33 437.067L 113.33 421.469ZM 80.4582 429.268L 80.4582 698.809L 96.0562 698.809L 96.0562 429.268L 80.4582 429.268ZM 88.2572 691.01L 3.43294e-05 691.01L 3.43294e-05 706.608L 88.2572 706.608L 88.2572 691.01ZM 7.79903 698.809L 7.79903 16.9711L -7.79897 16.9711L -7.79897 698.809L 7.79903 698.809ZM 88.2572 363.193L 126.368 363.193L 126.368 347.595L 88.2572 347.595L 88.2572 363.193ZM 126.368 363.193C 173.555 363.193 211.035 352.652 237.673 330.436L 227.683 318.457C 204.843 337.505 171.451 347.595 126.368 347.595L 126.368 363.193ZM 237.766 330.357C 265.006 306.907 277.585 267.864 277.585 215.632L 261.987 215.632C 261.987 265.893 249.827 299.393 227.59 318.536L 237.766 330.357ZM 277.585 215.632C 277.562 189.079 273.978 166.034 267.032 147.932L 252.482 153.554C 258.908 170.06 262.01 190.274 261.987 215.632L 277.585 215.632ZM 267.152 148.267C 260.768 129.393 250.546 113.621 237.657 102.812L 227.699 114.817C 238.88 123.974 246.711 136.154 252.362 153.22L 267.152 148.267ZM 238.01 103.123C 225.881 91.8456 210.203 83.2856 192.649 78.341L 188.461 93.3663C 204.338 97.7392 216.742 104.486 227.346 114.506L 238.01 103.123ZM 192.73 78.3639C 176.099 73.5599 156.956 71.0826 136.397 71.0666L 136.397 86.6646C 155.956 86.6485 172.918 88.8299 188.381 93.3434L 192.73 78.3639ZM 136.397 71.0666C 118.771 71.0703 102.2 72.1027 87.2082 74.1323L 89.3062 89.5886C 103.734 87.625 119.256 86.6608 136.397 86.6646L 136.397 71.0666ZM 80.4582 81.8605L 80.4582 355.394L 96.0562 355.394L 96.0562 81.8605L 80.4582 81.8605Z"/>
<path id="path6_fill" d="M -3.6008e-05 691.821L -3.6008e-05 -3.93268e-07L 311.909 -3.93268e-07L 311.909 76.869L 90.2629 76.869L 90.2629 291.503L 290.847 291.503L 290.847 366.375L 90.2629 366.375L 90.2629 614.952L 327.955 614.952L 327.955 691.821L -3.6008e-05 691.821Z"/>
<path id="path7_stroke" d="M -3.6008e-05 691.821L -7.79904 691.821L -7.79904 699.62L -3.6008e-05 699.62L -3.6008e-05 691.821ZM -3.6008e-05 -3.93268e-07L -3.6008e-05 -7.799L -7.79904 -7.799L -7.79904 -3.93268e-07L -3.6008e-05 -3.93268e-07ZM 311.909 -3.93268e-07L 319.708 -3.93268e-07L 319.708 -7.799L 311.909 -7.799L 311.909 -3.93268e-07ZM 311.909 76.869L 311.909 84.668L 319.708 84.668L 319.708 76.869L 311.909 76.869ZM 90.2629 76.869L 90.2629 69.07L 82.4639 69.07L 82.4639 76.869L 90.2629 76.869ZM 90.2629 291.503L 82.4639 291.503L 82.4639 299.302L 90.2629 299.302L 90.2629 291.503ZM 290.847 291.503L 298.646 291.503L 298.646 283.704L 290.847 283.704L 290.847 291.503ZM 290.847 366.375L 290.847 374.174L 298.646 374.174L 298.646 366.375L 290.847 366.375ZM 90.2629 366.375L 90.2629 358.576L 82.4639 358.576L 82.4639 366.375L 90.2629 366.375ZM 90.2629 614.952L 82.4639 614.952L 82.4639 622.751L 90.2629 622.751L 90.2629 614.952ZM 327.955 614.952L 335.754 614.952L 335.754 607.153L 327.955 607.153L 327.955 614.952ZM 327.955 691.821L 327.955 699.62L 335.754 699.62L 335.754 691.821L 327.955 691.821ZM 7.79896 691.821L 7.79896 -3.93268e-07L -7.79904 -3.93268e-07L -7.79904 691.821L 7.79896 691.821ZM -3.6008e-05 7.799L 311.909 7.799L 311.909 -7.799L -3.6008e-05 -7.799L -3.6008e-05 7.799ZM 304.11 -3.93268e-07L 304.11 76.869L 319.708 76.869L 319.708 -3.93268e-07L 304.11 -3.93268e-07ZM 311.909 69.07L 90.2629 69.07L 90.2629 84.668L 311.909 84.668L 311.909 69.07ZM 82.4639 76.869L 82.4639 291.503L 98.0619 291.503L 98.0619 76.869L 82.4639 76.869ZM 90.2629 299.302L 290.847 299.302L 290.847 283.704L 90.2629 283.704L 90.2629 299.302ZM 283.048 291.503L 283.048 366.375L 298.646 366.375L 298.646 291.503L 283.048 291.503ZM 290.847 358.576L 90.2629 358.576L 90.2629 374.174L 290.847 374.174L 290.847 358.576ZM 82.4639 366.375L 82.4639 614.952L 98.0619 614.952L 98.0619 366.375L 82.4639 366.375ZM 90.2629 622.751L 327.955 622.751L 327.955 607.153L 90.2629 607.153L 90.2629 622.751ZM 320.156 614.952L 320.156 691.821L 335.754 691.821L 335.754 614.952L 320.156 614.952ZM 327.955 684.022L -3.6008e-05 684.022L -3.6008e-05 699.62L 327.955 699.62L 327.955 684.022Z"/>
<path id="path8_fill" d="M 256.748 595.984C 243.376 548.066 229.669 502.144 215.628 458.219C 201.587 414.294 187.881 373.031 174.508 334.43C 161.805 295.164 149.435 259.558 137.4 227.612C 125.365 195.666 114.333 167.714 104.304 143.755C 101.629 181.69 99.2892 223.619 97.2833 269.541C 95.9462 314.797 94.2747 361.384 92.2688 409.302C 90.9316 457.221 89.5944 505.472 88.2572 554.056C 87.5886 601.974 86.92 647.896 86.2513 691.821L 4.60253e-06 691.821C 2.0058 631.923 4.01158 571.692 6.01747 511.129C 8.02335 449.9 10.3635 390.002 13.0378 331.435C 16.3809 272.203 19.724 214.634 23.0671 158.729C 27.0788 102.825 31.4249 49.9149 36.1053 -3.93268e-07L 125.365 -3.93268e-07C 137.4 28.6179 151.107 62.8928 166.485 102.825C 181.863 142.091 197.241 183.354 212.62 226.614C 228.666 269.873 244.044 313.133 258.754 356.392C 273.463 399.652 286.167 439.251 296.865 475.19C 307.563 439.251 319.932 399.652 333.973 356.392C 348.014 313.133 362.724 269.873 378.102 226.614C 393.48 183.354 408.524 142.091 423.233 102.825C 438.611 62.8928 452.318 28.6179 464.353 -3.93268e-07L 553.613 -3.93268e-07C 558.293 49.9149 562.305 102.825 565.648 158.729C 569.66 214.634 573.003 272.203 575.677 331.435C 579.021 390.002 581.695 449.9 583.701 511.129C 585.707 571.692 587.713 631.923 589.718 691.821L 503.467 691.821C 502.13 647.896 500.793 601.641 499.455 553.057C 498.787 504.473 497.449 455.89 495.444 407.306C 494.106 358.056 492.435 310.471 490.429 264.549C 488.423 217.962 486.083 175.368 483.409 136.767C 477.391 153.405 469.702 174.369 460.341 199.66C 451.649 224.284 442.289 251.238 432.26 280.522C 422.899 309.805 412.87 340.087 402.172 371.367C 392.143 401.981 382.448 431.598 373.087 460.215C 364.395 488.833 356.372 515.122 349.017 539.081C 342.331 562.375 336.982 581.342 332.97 595.984L 256.748 595.984L 256.748 595.984Z"/>
<path id="path9_stroke" d="M 174.508 334.43L 167.088 336.831L 167.113 336.907L 167.139 336.983L 174.508 334.43ZM 137.4 227.612L 130.102 230.362L 130.102 230.362L 137.4 227.612ZM 104.304 143.755L 111.498 140.744L 96.5242 143.206L 104.304 143.755ZM 97.2833 269.541L 89.4918 269.2L 89.4894 269.255L 89.4877 269.31L 97.2833 269.541ZM 92.2688 409.302L 84.4766 408.976L 84.4743 409.03L 84.4728 409.085L 92.2688 409.302ZM 88.2572 554.056L 80.4611 553.841L 80.4597 553.894L 80.4589 553.947L 88.2572 554.056ZM 86.2513 691.821L 86.2513 699.62L 93.9325 699.62L 94.0494 691.939L 86.2513 691.821ZM 4.60253e-06 691.821L -7.79463 691.56L -8.06453 699.62L 4.60253e-06 699.62L 4.60253e-06 691.821ZM 6.01747 511.129L 13.8122 511.387L 13.8123 511.384L 6.01747 511.129ZM 13.0378 331.435L 5.25123 330.996L 5.24887 331.037L 5.24696 331.079L 13.0378 331.435ZM 23.0671 158.729L 15.2881 158.171L 15.2848 158.218L 15.282 158.264L 23.0671 158.729ZM 36.1053 -3.93268e-07L 36.1053 -7.799L 29.0034 -7.799L 28.3404 -0.728094L 36.1053 -3.93268e-07ZM 125.365 -3.93268e-07L 132.554 -3.02334L 130.546 -7.799L 125.365 -7.799L 125.365 -3.93268e-07ZM 166.485 102.825L 159.207 105.628L 159.215 105.648L 159.223 105.669L 166.485 102.825ZM 212.62 226.614L 205.271 229.226L 205.289 229.276L 205.307 229.326L 212.62 226.614ZM 258.754 356.392L 251.37 358.903L 251.37 358.903L 258.754 356.392ZM 296.865 475.19L 289.39 477.415L 296.865 502.526L 304.34 477.415L 296.865 475.19ZM 378.102 226.614L 370.753 224.001L 370.753 224.001L 378.102 226.614ZM 423.233 102.825L 415.955 100.022L 415.942 100.055L 415.93 100.089L 423.233 102.825ZM 464.353 -3.93268e-07L 464.353 -7.799L 459.172 -7.799L 457.164 -3.02336L 464.353 -3.93268e-07ZM 553.613 -3.93268e-07L 561.378 -0.72808L 560.715 -7.799L 553.613 -7.799L 553.613 -3.93268e-07ZM 565.648 158.729L 557.863 159.195L 557.866 159.241L 557.869 159.288L 565.648 158.729ZM 575.677 331.435L 567.886 331.787L 567.889 331.833L 567.891 331.879L 575.677 331.435ZM 583.701 511.129L 575.906 511.384L 575.906 511.387L 583.701 511.129ZM 589.718 691.821L 589.718 699.62L 597.783 699.62L 597.513 691.56L 589.718 691.821ZM 503.467 691.821L 495.672 692.058L 495.902 699.62L 503.467 699.62L 503.467 691.821ZM 499.455 553.057L 491.657 553.165L 491.658 553.218L 491.659 553.272L 499.455 553.057ZM 495.444 407.306L 487.647 407.517L 487.649 407.572L 487.651 407.627L 495.444 407.306ZM 490.429 264.549L 482.637 264.885L 482.637 264.889L 490.429 264.549ZM 483.409 136.767L 491.189 136.228L 476.074 134.114L 483.409 136.767ZM 460.341 199.66L 453.027 196.953L 453.007 197.008L 452.987 197.064L 460.341 199.66ZM 432.26 280.522L 424.881 277.995L 424.855 278.071L 424.831 278.147L 432.26 280.522ZM 402.172 371.367L 394.793 368.843L 394.776 368.891L 394.76 368.939L 402.172 371.367ZM 373.087 460.215L 365.674 457.791L 365.649 457.87L 365.625 457.949L 373.087 460.215ZM 349.017 539.081L 341.561 536.792L 341.54 536.861L 341.521 536.929L 349.017 539.081ZM 332.97 595.984L 332.97 603.783L 338.92 603.783L 340.492 598.045L 332.97 595.984ZM 264.26 593.888C 250.869 545.902 237.121 499.841 223.057 455.844L 208.2 460.594C 222.218 504.447 235.883 550.229 249.236 598.08L 264.26 593.888ZM 223.057 455.844C 209.003 411.877 195.266 370.525 181.878 331.877L 167.139 336.983C 180.495 375.537 194.172 416.71 208.2 460.594L 223.057 455.844ZM 181.929 332.029C 169.199 292.683 156.769 256.903 144.699 224.862L 130.102 230.362C 142.102 262.212 154.411 297.644 167.088 336.831L 181.929 332.029ZM 144.699 224.862C 132.642 192.86 121.558 164.777 111.498 140.744L 97.1098 146.766C 107.108 170.652 118.089 198.473 130.102 230.362L 144.699 224.862ZM 96.5242 143.206C 93.8459 181.199 91.4999 223.231 89.4918 269.2L 105.075 269.881C 107.079 224.006 109.413 182.182 112.084 144.303L 96.5242 143.206ZM 89.4877 269.31C 88.1513 314.542 86.4816 361.081 84.4766 408.976L 100.061 409.628C 102.068 361.687 103.741 315.052 105.079 269.771L 89.4877 269.31ZM 84.4728 409.085C 83.1356 457.004 81.7983 505.256 80.4611 553.841L 96.0532 554.27C 97.3904 505.687 98.7276 457.437 100.065 409.52L 84.4728 409.085ZM 80.4589 553.947C 79.7904 601.863 79.1219 647.779 78.4532 691.702L 94.0494 691.939C 94.7182 648.012 95.3868 602.085 96.0554 554.164L 80.4589 553.947ZM 86.2513 684.022L 4.60253e-06 684.022L 4.60253e-06 699.62L 86.2513 699.62L 86.2513 684.022ZM 7.79464 692.082C 9.80045 632.183 11.8063 571.951 13.8122 511.387L -1.77726 510.871C -3.78312 571.433 -5.78886 631.662 -7.79463 691.56L 7.79464 692.082ZM 13.8123 511.384C 15.8173 450.18 18.1555 390.332 20.8287 331.791L 5.24696 331.079C 2.57144 389.672 0.229377 449.62 -1.77735 510.873L 13.8123 511.384ZM 20.8244 331.875C 24.1672 272.648 27.5095 215.093 30.8522 159.195L 15.282 158.264C 11.9386 214.175 8.59467 271.757 5.25123 330.996L 20.8244 331.875ZM 30.8461 159.288C 34.8548 103.423 39.1939 50.5982 43.8702 0.728094L 28.3404 -0.728094C 23.6559 49.2316 19.3028 102.226 15.2881 158.171L 30.8461 159.288ZM 36.1053 7.799L 125.365 7.799L 125.365 -7.799L 36.1053 -7.799L 36.1053 7.799ZM 118.176 3.02334C 130.185 31.5776 143.847 65.7422 159.207 105.628L 173.763 100.022C 158.367 60.0434 144.616 25.6582 132.554 -3.02334L 118.176 3.02334ZM 159.223 105.669C 174.578 144.875 189.913 186.022 205.271 229.226L 219.968 224.001C 204.57 180.686 189.149 139.307 173.747 99.9807L 159.223 105.669ZM 205.307 229.326C 221.336 272.536 236.678 315.694 251.37 358.903L 266.138 353.882C 251.411 310.571 235.997 267.211 219.932 223.901L 205.307 229.326ZM 251.37 358.903C 266.058 402.099 278.716 441.555 289.39 477.415L 304.34 472.965C 293.618 436.947 280.869 397.205 266.138 353.882L 251.37 358.903ZM 304.34 477.415C 315.023 441.526 327.363 402.019 341.391 358.8L 326.555 353.985C 312.501 397.286 300.103 436.976 289.39 472.965L 304.34 477.415ZM 341.391 358.8C 355.415 315.592 370.09 272.435 385.45 229.226L 370.753 224.001C 355.357 267.312 340.613 310.674 326.555 353.985L 341.391 358.8ZM 385.45 229.226C 400.818 185.996 415.839 144.795 430.537 105.561L 415.93 100.089C 401.208 139.387 386.142 180.712 370.753 224.001L 385.45 229.226ZM 430.511 105.628C 445.871 65.7422 459.533 31.5776 471.542 3.02336L 457.164 -3.02336C 445.102 25.6582 431.351 60.0434 415.955 100.022L 430.511 105.628ZM 464.353 7.799L 553.613 7.799L 553.613 -7.799L 464.353 -7.799L 464.353 7.799ZM 545.848 0.728079C 550.522 50.5738 554.524 103.352 557.863 159.195L 573.433 158.264C 570.086 102.297 566.064 49.256 561.378 -0.72808L 545.848 0.728079ZM 557.869 159.288C 561.877 215.139 565.214 272.605 567.886 331.787L 583.469 331.083C 580.792 271.801 577.442 214.129 573.427 158.171L 557.869 159.288ZM 567.891 331.879C 571.232 390.398 573.902 450.201 575.906 511.384L 591.496 510.873C 589.488 449.598 586.809 389.606 583.464 330.991L 567.891 331.879ZM 575.906 511.387C 577.912 571.951 579.918 632.183 581.924 692.082L 597.513 691.56C 595.507 631.662 593.501 571.433 591.496 510.871L 575.906 511.387ZM 589.718 684.022L 503.467 684.022L 503.467 699.62L 589.718 699.62L 589.718 684.022ZM 511.262 691.583C 509.925 647.664 508.589 601.421 507.251 552.843L 491.659 553.272C 492.997 601.861 494.334 648.127 495.672 692.058L 511.262 691.583ZM 507.254 552.95C 506.584 504.312 505.244 455.621 503.236 406.984L 487.651 407.627C 489.655 456.158 490.989 504.634 491.657 553.165L 507.254 552.95ZM 503.24 407.094C 501.902 357.814 500.228 310.164 498.221 264.209L 482.637 264.889C 484.642 310.778 486.311 358.299 487.647 407.517L 503.24 407.094ZM 498.221 264.214C 496.213 217.58 493.867 174.884 491.189 136.228L 475.628 137.306C 478.299 175.851 480.634 218.343 482.637 264.885L 498.221 264.214ZM 476.074 134.114C 470.063 150.736 462.384 171.673 453.027 196.953L 467.655 202.367C 477.02 177.066 484.719 156.074 490.743 139.419L 476.074 134.114ZM 452.987 197.064C 444.289 221.707 434.916 248.696 424.881 277.995L 439.638 283.049C 449.662 253.781 459.01 226.862 467.696 202.256L 452.987 197.064ZM 424.831 278.147C 415.483 307.392 405.478 337.599 394.793 368.843L 409.551 373.891C 420.261 342.575 430.315 312.219 439.688 282.896L 424.831 278.147ZM 394.76 368.939C 384.731 399.554 375.035 429.172 365.674 457.791L 380.5 462.64C 389.86 434.023 399.554 404.409 409.583 373.795L 394.76 368.939ZM 365.625 457.949C 356.934 486.562 348.914 512.839 341.561 536.792L 356.473 541.37C 363.829 517.405 371.856 491.105 380.549 462.482L 365.625 457.949ZM 341.521 536.929C 334.83 560.24 329.468 579.254 325.448 593.923L 340.492 598.045C 344.496 583.431 349.832 564.509 356.513 541.233L 341.521 536.929ZM 332.97 588.185L 256.748 588.185L 256.748 603.783L 332.97 603.783L 332.97 588.185Z"/>
<path id="path10_fill" d="M -3.97983e-05 -3.93268e-07L 90.2629 -3.93268e-07L 90.2629 691.821L -3.97983e-05 691.821L -3.97983e-05 -3.93268e-07L -3.97983e-05 -3.93268e-07Z"/>
<path id="path11_stroke" d="M 90.2629 -3.93268e-07L 98.0619 -3.93268e-07L 98.0619 -7.799L 90.2629 -7.799L 90.2629 -3.93268e-07ZM 90.2629 691.821L 90.2629 699.62L 98.0619 699.62L 98.0619 691.821L 90.2629 691.821ZM -3.97983e-05 691.821L -7.79904 691.821L -7.79904 699.62L -3.97983e-05 699.62L -3.97983e-05 691.821ZM -3.97983e-05 7.799L 90.2629 7.799L 90.2629 -7.799L -3.97983e-05 -7.799L -3.97983e-05 7.799ZM 82.4639 -3.93268e-07L 82.4639 691.821L 98.0619 691.821L 98.0619 -3.93268e-07L 82.4639 -3.93268e-07ZM 90.2629 684.022L -3.97983e-05 684.022L -3.97983e-05 699.62L 90.2629 699.62L 90.2629 684.022ZM 7.79896 691.821L 7.79896 -3.93268e-07L -7.79904 -3.93268e-07L -7.79904 691.821L 7.79896 691.821Z"/>
<path id="path12_fill" d="M 340.994 691.821C 324.947 652.554 306.56 610.293 285.833 565.037C 265.774 519.115 244.379 473.193 221.646 427.272C 199.582 380.684 176.849 334.763 153.447 289.507C 130.046 243.585 106.978 200.991 84.2455 161.724L 84.2455 691.821L 2.76152e-05 691.821L 2.76152e-05 -3.93268e-07L 75.2192 -3.93268e-07C 100.627 41.263 125.031 83.5243 148.432 126.784C 172.503 170.043 195.236 212.97 216.631 255.564C 238.027 297.493 258.085 339.089 276.806 380.352C 296.196 420.949 313.915 459.55 329.961 496.154L 329.961 -3.93268e-07L 414.207 -3.93268e-07L 414.207 691.821L 340.994 691.821L 340.994 691.821Z"/>
<path id="path13_stroke" d="M 285.833 565.037L 278.686 568.159L 278.713 568.222L 278.742 568.284L 285.833 565.037ZM 221.646 427.272L 214.597 430.61L 214.626 430.671L 214.656 430.732L 221.646 427.272ZM 153.447 289.507L 146.498 293.048L 146.509 293.068L 146.52 293.089L 153.447 289.507ZM 84.2455 161.724L 90.995 157.817L 76.4465 132.687L 76.4465 161.724L 84.2455 161.724ZM 84.2455 691.821L 84.2455 699.62L 92.0445 699.62L 92.0445 691.821L 84.2455 691.821ZM 2.76152e-05 691.821L -7.79897 691.821L -7.79897 699.62L 2.76152e-05 699.62L 2.76152e-05 691.821ZM 2.76152e-05 -3.93268e-07L 2.76152e-05 -7.799L -7.79897 -7.799L -7.79897 -3.93268e-07L 2.76152e-05 -3.93268e-07ZM 75.2192 -3.93268e-07L 81.8602 -4.08917L 79.5759 -7.799L 75.2192 -7.799L 75.2192 -3.93268e-07ZM 148.432 126.784L 141.573 130.495L 141.595 130.535L 141.617 130.576L 148.432 126.784ZM 216.631 255.564L 209.662 259.065L 209.673 259.087L 209.685 259.109L 216.631 255.564ZM 276.806 380.352L 269.704 383.574L 269.736 383.644L 269.769 383.713L 276.806 380.352ZM 329.961 496.154L 322.819 499.286L 337.76 496.154L 329.961 496.154ZM 329.961 -3.93268e-07L 329.961 -7.799L 322.162 -7.799L 322.162 -3.93268e-07L 329.961 -3.93268e-07ZM 414.207 -3.93268e-07L 422.006 -3.93268e-07L 422.006 -7.799L 414.207 -7.799L 414.207 -3.93268e-07ZM 414.207 691.821L 414.207 699.62L 422.006 699.62L 422.006 691.821L 414.207 691.821ZM 348.213 688.87C 332.133 649.523 313.681 607.113 292.923 561.789L 278.742 568.284C 299.438 613.473 317.761 655.585 333.774 694.771L 348.213 688.87ZM 292.98 561.915C 272.883 515.907 251.409 469.816 228.635 423.812L 214.656 430.732C 237.349 476.57 258.666 522.323 278.686 568.159L 292.98 561.915ZM 228.694 423.933C 206.601 377.285 183.808 331.241 160.375 285.924L 146.52 293.089C 169.89 338.284 192.562 384.084 214.597 430.61L 228.694 423.933ZM 160.396 285.965C 136.95 239.957 113.783 197.18 90.995 157.817L 77.4961 165.632C 100.174 204.802 123.142 247.213 146.498 293.048L 160.396 285.965ZM 76.4465 161.724L 76.4465 691.821L 92.0445 691.821L 92.0445 161.724L 76.4465 161.724ZM 84.2455 684.022L 2.76152e-05 684.022L 2.76152e-05 699.62L 84.2455 699.62L 84.2455 684.022ZM 7.79903 691.821L 7.79903 -3.93268e-07L -7.79897 -3.93268e-07L -7.79897 691.821L 7.79903 691.821ZM 2.76152e-05 7.799L 75.2192 7.799L 75.2192 -7.799L 2.76152e-05 -7.799L 2.76152e-05 7.799ZM 68.5781 4.08916C 93.9285 45.258 118.224 87.3301 141.573 130.495L 155.292 123.073C 131.838 79.7185 107.325 37.268 81.8602 -4.08917L 68.5781 4.08916ZM 141.617 130.576C 165.649 173.765 188.305 216.546 209.662 259.065L 223.601 252.064C 202.167 209.395 179.357 166.322 155.248 122.992L 141.617 130.576ZM 209.685 259.109C 231.041 300.959 251.021 342.394 269.704 383.574L 283.909 377.129C 265.149 335.784 245.013 294.026 223.578 252.019L 209.685 259.109ZM 269.769 383.713C 289.133 424.257 306.799 462.742 322.819 499.286L 337.104 493.023C 321.03 456.357 303.259 417.642 283.844 376.99L 269.769 383.713ZM 337.76 496.154L 337.76 -3.93268e-07L 322.162 -3.93268e-07L 322.162 496.154L 337.76 496.154ZM 329.961 7.799L 414.207 7.799L 414.207 -7.799L 329.961 -7.799L 329.961 7.799ZM 406.408 -3.93268e-07L 406.408 691.821L 422.006 691.821L 422.006 -3.93268e-07L 406.408 -3.93268e-07ZM 414.207 684.022L 340.994 684.022L 340.994 699.62L 414.207 699.62L 414.207 684.022Z"/>
<path id="path14_fill" d="M 439.28 353.398C 439.28 417.954 432.26 472.861 418.219 518.117C 404.846 562.707 385.122 598.979 359.046 626.931C 333.639 654.884 302.548 675.182 265.775 687.827C 229.669 700.473 189.218 706.795 144.421 706.795C 98.9551 706.795 50.8148 700.805 5.68547e-05 688.826L 5.68547e-05 17.9694C 25.4074 12.6451 50.146 8.31915 74.2161 4.99149C 98.2863 1.66383 121.354 1.44905e-07 143.418 1.44905e-07C 188.884 1.44905e-07 229.669 6.32255 265.775 18.9677C 302.548 31.6128 333.639 51.9115 359.046 79.8639C 385.122 107.816 404.846 144.42 418.219 189.677C 432.26 234.267 439.28 288.841 439.28 353.398L 439.28 353.398ZM 343 353.398C 343 304.148 339.322 262.22 331.967 227.612C 324.613 193.004 313.246 164.719 297.868 142.757C 282.49 120.794 262.097 104.821 236.69 94.8383C 211.951 84.8554 182.197 79.8639 147.429 79.8639C 138.069 79.8639 128.709 80.1966 119.348 80.8622C 109.987 81.5277 100.292 82.526 90.263 83.857L 90.263 622.938C 100.292 624.269 109.987 625.267 119.348 625.933C 128.709 626.599 137.735 626.931 146.427 626.931C 181.863 626.931 211.951 621.94 236.69 611.957C 261.428 601.974 281.487 586.334 296.865 565.037C 312.912 543.074 324.613 514.789 331.967 480.181C 339.322 445.574 343 403.312 343 353.398L 343 353.398Z"/>
<path id="path15_stroke" d="M 418.219 518.117L 410.77 515.806L 410.759 515.841L 410.748 515.877L 418.219 518.117ZM 359.046 626.931L 353.343 621.611L 353.309 621.648L 353.275 621.686L 359.046 626.931ZM 265.775 687.827L 263.239 680.452L 263.218 680.46L 263.197 680.467L 265.775 687.827ZM 5.68547e-05 688.826L -7.79894 688.826L -7.79894 695L -1.7895 696.417L 5.68547e-05 688.826ZM 5.68547e-05 17.9694L -1.59953 10.3362L -7.79894 11.6353L -7.79894 17.9694L 5.68547e-05 17.9694ZM 265.775 18.9677L 263.197 26.3283L 263.218 26.3356L 263.239 26.3428L 265.775 18.9677ZM 359.046 79.8639L 353.275 85.1096L 353.309 85.1469L 353.343 85.1839L 359.046 79.8639ZM 418.219 189.677L 410.739 191.887L 410.759 191.953L 410.78 192.019L 418.219 189.677ZM 297.868 142.757L 291.479 147.23L 291.479 147.23L 297.868 142.757ZM 236.69 94.8383L 233.771 102.071L 233.804 102.084L 233.838 102.097L 236.69 94.8383ZM 90.263 83.857L 89.2369 76.1258L 82.464 77.0247L 82.464 83.857L 90.263 83.857ZM 90.263 622.938L 82.464 622.938L 82.464 629.77L 89.2369 630.669L 90.263 622.938ZM 119.348 625.933L 118.795 633.712L 118.795 633.712L 119.348 625.933ZM 236.69 611.957L 239.608 619.189L 239.608 619.189L 236.69 611.957ZM 296.865 565.037L 290.568 560.436L 290.555 560.453L 290.542 560.471L 296.865 565.037ZM 431.481 353.398C 431.497 417.459 424.638 471.204 410.77 515.806L 425.667 520.428C 439.881 474.517 447.063 418.45 447.079 353.398L 431.481 353.398ZM 410.748 515.877C 397.647 559.708 378.794 594.42 353.343 621.611L 364.749 632.251C 391.45 603.538 412.046 565.706 425.689 520.357L 410.748 515.877ZM 353.275 621.686C 328.58 648.948 299.122 668.176 263.239 680.452L 268.311 695.203C 305.974 682.189 338.697 660.82 364.817 632.177L 353.275 621.686ZM 263.197 680.467C 227.77 692.908 188.614 699.02 144.421 698.996L 144.421 714.594C 189.822 714.571 231.568 708.037 268.352 695.188L 263.197 680.467ZM 144.421 698.996C 99.4375 699.011 52.1931 693.129 1.78961 681.235L -1.7895 696.417C 49.4366 708.482 98.4726 714.579 144.421 714.594L 144.421 698.996ZM 7.79906 688.826L 7.79906 17.9694L -7.79894 17.9694L -7.79894 688.826L 7.79906 688.826ZM 1.59964 25.6026C 26.8791 20.304 51.3519 16.0244 75.2842 12.717L 73.1481 -2.73403C 48.9401 0.613948 23.9357 4.98623 -1.59953 10.3362L 1.59964 25.6026ZM 75.2842 12.717C 99.1012 9.42013 121.634 7.79395 143.418 7.799L 143.418 -7.799C 121.073 -7.79395 97.4713 -6.09247 73.1481 -2.73403L 75.2842 12.717ZM 143.418 7.799C 188.285 7.77595 227.775 13.888 263.197 26.3283L 268.352 11.607C 231.564 -1.24291 189.483 -7.77595 143.418 -7.799L 143.418 7.799ZM 263.239 26.3428C 299.122 38.619 328.58 57.8476 353.275 85.1096L 364.817 74.6181C 338.697 45.9754 305.974 24.6066 268.311 11.5925L 263.239 26.3428ZM 353.343 85.1839C 378.786 112.363 397.635 147.391 410.739 191.887L 425.698 187.467C 412.057 141.45 391.458 103.269 364.749 74.5439L 353.343 85.1839ZM 410.78 192.019C 424.643 235.943 431.497 289.339 431.481 353.398L 447.079 353.398C 447.063 288.342 439.876 232.592 425.658 187.334L 410.78 192.019ZM 350.799 353.398C 350.791 303.807 347.035 261.066 339.596 225.991L 324.339 229.233C 331.609 263.373 335.208 304.489 335.201 353.398L 350.799 353.398ZM 339.596 225.991C 332.073 190.731 320.104 161.004 304.257 138.283L 291.479 147.23C 306.389 168.434 317.152 195.277 324.339 229.233L 339.596 225.991ZM 304.257 138.283C 288.15 115.429 265.968 98.0509 239.542 87.5796L 233.838 102.097C 258.226 111.592 276.829 126.159 291.479 147.23L 304.257 138.283ZM 239.608 87.606C 214.068 77.3492 182.845 72.0918 147.429 72.0649L 147.429 87.6629C 181.55 87.6359 209.834 92.3616 233.771 102.071L 239.608 87.606ZM 147.429 72.0649C 137.93 72.0661 128.293 72.4087 118.795 73.0828L 119.901 88.6415C 129.124 87.9846 138.207 87.6616 147.429 87.6629L 147.429 72.0649ZM 118.795 73.0828C 109.311 73.758 99.3797 74.7806 89.2369 76.1258L 91.2891 91.5883C 101.205 90.2714 110.663 89.2973 119.901 88.6415L 118.795 73.0828ZM 82.464 83.857L 82.464 622.938L 98.062 622.938L 98.062 83.857L 82.464 83.857ZM 89.2369 630.669C 99.3797 632.015 109.311 633.037 118.795 633.712L 119.901 618.154C 110.663 617.498 101.205 616.524 91.2891 615.207L 89.2369 630.669ZM 118.795 633.712C 128.288 634.386 137.591 634.729 146.427 634.73L 146.427 619.132C 137.878 619.134 129.129 618.811 119.901 618.154L 118.795 633.712ZM 146.427 634.73C 182.504 634.704 214.061 629.448 239.608 619.189L 233.771 604.724C 209.841 614.432 181.223 619.159 146.427 619.132L 146.427 634.73ZM 239.608 619.189C 265.323 608.731 287.102 591.746 303.188 569.602L 290.542 560.471C 275.871 580.922 257.534 595.217 233.771 604.724L 239.608 619.189ZM 303.162 569.638C 319.712 546.893 332.061 517.1 339.596 481.803L 324.339 478.56C 317.164 512.478 306.111 539.256 290.568 560.436L 303.162 569.638ZM 339.596 481.803C 347.036 446.725 350.791 403.651 350.799 353.398L 335.201 353.398C 335.208 402.974 331.608 444.423 324.339 478.56L 339.596 481.803Z"/>
<path id="path16_fill" d="M 1.62442e-05 691.821L 1.62442e-05 -3.93268e-07L 311.909 -3.93268e-07L 311.909 76.869L 90.263 76.869L 90.263 291.503L 290.847 291.503L 290.847 366.375L 90.263 366.375L 90.263 614.952L 327.956 614.952L 327.956 691.821L 1.62442e-05 691.821Z"/>
<path id="path17_stroke" d="M 1.62442e-05 691.821L -7.79898 691.821L -7.79898 699.62L 1.62442e-05 699.62L 1.62442e-05 691.821ZM 1.62442e-05 -3.93268e-07L 1.62442e-05 -7.799L -7.79898 -7.799L -7.79898 -3.93268e-07L 1.62442e-05 -3.93268e-07ZM 311.909 -3.93268e-07L 319.708 -3.93268e-07L 319.708 -7.799L 311.909 -7.799L 311.909 -3.93268e-07ZM 311.909 76.869L 311.909 84.668L 319.708 84.668L 319.708 76.869L 311.909 76.869ZM 90.263 76.869L 90.263 69.07L 82.464 69.07L 82.464 76.869L 90.263 76.869ZM 90.263 291.503L 82.464 291.503L 82.464 299.302L 90.263 299.302L 90.263 291.503ZM 290.847 291.503L 298.646 291.503L 298.646 283.704L 290.847 283.704L 290.847 291.503ZM 290.847 366.375L 290.847 374.174L 298.646 374.174L 298.646 366.375L 290.847 366.375ZM 90.263 366.375L 90.263 358.576L 82.464 358.576L 82.464 366.375L 90.263 366.375ZM 90.263 614.952L 82.464 614.952L 82.464 622.751L 90.263 622.751L 90.263 614.952ZM 327.956 614.952L 335.755 614.952L 335.755 607.153L 327.956 607.153L 327.956 614.952ZM 327.956 691.821L 327.956 699.62L 335.755 699.62L 335.755 691.821L 327.956 691.821ZM 7.79902 691.821L 7.79902 -3.93268e-07L -7.79898 -3.93268e-07L -7.79898 691.821L 7.79902 691.821ZM 1.62442e-05 7.799L 311.909 7.799L 311.909 -7.799L 1.62442e-05 -7.799L 1.62442e-05 7.799ZM 304.11 -3.93268e-07L 304.11 76.869L 319.708 76.869L 319.708 -3.93268e-07L 304.11 -3.93268e-07ZM 311.909 69.07L 90.263 69.07L 90.263 84.668L 311.909 84.668L 311.909 69.07ZM 82.464 76.869L 82.464 291.503L 98.062 291.503L 98.062 76.869L 82.464 76.869ZM 90.263 299.302L 290.847 299.302L 290.847 283.704L 90.263 283.704L 90.263 299.302ZM 283.048 291.503L 283.048 366.375L 298.646 366.375L 298.646 291.503L 283.048 291.503ZM 290.847 358.576L 90.263 358.576L 90.263 374.174L 290.847 374.174L 290.847 358.576ZM 82.464 366.375L 82.464 614.952L 98.062 614.952L 98.062 366.375L 82.464 366.375ZM 90.263 622.751L 327.956 622.751L 327.956 607.153L 90.263 607.153L 90.263 622.751ZM 320.157 614.952L 320.157 691.821L 335.755 691.821L 335.755 614.952L 320.157 614.952ZM 327.956 684.022L 1.62442e-05 684.022L 1.62442e-05 699.62L 327.956 699.62L 327.956 684.022Z"/>
<path id="path18_fill" d="M 3.35714e-05 16.9711C 46.8031 5.65702 91.9346 -1.12343e-08 135.394 -1.12343e-08C 170.162 -1.12343e-08 201.587 3.99319 229.669 11.9796C 257.751 19.966 281.821 32.6111 301.88 49.9149C 321.938 67.2188 337.316 89.5141 348.014 116.801C 359.381 144.088 365.064 177.032 365.064 215.632C 365.064 263.551 355.703 302.484 336.982 332.433C 318.929 361.717 294.191 384.012 262.766 399.319C 270.789 412.63 280.818 430.932 292.853 454.226C 305.557 476.854 318.261 502.144 330.964 530.096C 344.337 557.383 357.04 585.668 369.076 614.952C 381.779 644.235 392.477 672.188 401.169 698.809L 310.906 698.809C 303.551 678.843 294.191 656.215 282.824 630.925C 272.126 605.634 260.76 580.677 248.725 556.052C 236.69 530.762 224.654 506.803 212.619 484.175C 200.584 460.881 189.887 441.248 180.526 425.275C 169.828 426.606 158.796 427.604 147.429 428.27C 136.063 428.936 124.697 429.268 113.33 429.268L 88.2572 429.268L 88.2572 698.809L 3.35714e-05 698.809L 3.35714e-05 16.9711L 3.35714e-05 16.9711ZM 88.2572 355.394L 126.368 355.394C 172.503 355.394 207.939 345.078 232.678 324.447C 257.417 303.15 269.786 266.878 269.786 215.632C 269.786 189.677 266.443 168.047 259.757 150.743C 253.739 132.774 244.713 118.798 232.678 108.815C 221.311 98.166 207.271 90.5124 190.555 85.8537C 174.509 81.1949 156.456 78.8656 136.398 78.8656C 119.014 78.8656 102.967 79.8639 88.2572 81.8605L 88.2572 355.394Z"/>
<path id="path19_stroke" d="M 301.88 49.9149L 306.974 44.0096L 306.974 44.0096L 301.88 49.9149ZM 348.014 116.801L 340.753 119.648L 340.783 119.724L 340.815 119.8L 348.014 116.801ZM 336.982 332.433L 330.369 328.299L 330.356 328.32L 330.343 328.341L 336.982 332.433ZM 262.766 399.319L 259.35 392.308L 251.684 396.042L 256.086 403.346L 262.766 399.319ZM 292.853 454.226L 285.924 457.806L 285.987 457.926L 286.053 458.044L 292.853 454.226ZM 330.964 530.096L 323.864 533.323L 323.911 533.427L 323.961 533.528L 330.964 530.096ZM 369.076 614.952L 361.862 617.916L 361.891 617.986L 361.921 618.056L 369.076 614.952ZM 401.169 698.809L 401.169 706.608L 411.92 706.608L 408.583 696.388L 401.169 698.809ZM 310.906 698.809L 303.588 701.505L 305.468 706.608L 310.906 706.608L 310.906 698.809ZM 282.824 630.925L 275.641 633.963L 275.675 634.043L 275.711 634.122L 282.824 630.925ZM 248.725 556.052L 241.683 559.403L 241.7 559.44L 241.718 559.477L 248.725 556.052ZM 212.619 484.175L 205.691 487.755L 205.712 487.796L 205.734 487.837L 212.619 484.175ZM 180.526 425.275L 187.255 421.332L 184.658 416.902L 179.563 417.536L 180.526 425.275ZM 147.429 428.27L 146.974 420.484L 146.974 420.484L 147.429 428.27ZM 88.2572 429.268L 88.2572 421.469L 80.4582 421.469L 80.4582 429.268L 88.2572 429.268ZM 88.2572 698.809L 88.2572 706.608L 96.0562 706.608L 96.0562 698.809L 88.2572 698.809ZM 3.35714e-05 698.809L -7.79897 698.809L -7.79897 706.608L 3.35714e-05 706.608L 3.35714e-05 698.809ZM 88.2572 355.394L 80.4582 355.394L 80.4582 363.193L 88.2572 363.193L 88.2572 355.394ZM 232.678 324.447L 237.673 330.436L 237.72 330.397L 237.766 330.357L 232.678 324.447ZM 259.757 150.743L 252.361 153.22L 252.418 153.388L 252.482 153.554L 259.757 150.743ZM 232.678 108.815L 227.346 114.506L 227.518 114.667L 227.699 114.817L 232.678 108.815ZM 190.555 85.8537L 188.381 93.3434L 188.421 93.3551L 188.462 93.3663L 190.555 85.8537ZM 88.2572 81.8605L 87.2082 74.1323L 80.4582 75.0485L 80.4582 81.8605L 88.2572 81.8605ZM 1.83256 24.5517C 48.2066 13.3287 92.4205 7.78385 135.394 7.799L 135.394 -7.799C 91.4486 -7.78385 45.3997 -2.01466 -1.83249 9.39042L 1.83256 24.5517ZM 135.394 7.799C 169.67 7.78343 200.025 11.634 227.536 19.4811L 231.803 4.47805C 203.15 -3.64764 170.655 -7.78343 135.394 -7.799L 135.394 7.799ZM 227.536 19.4811C 254.855 27.2075 277.432 39.0577 296.785 55.8202L 306.974 44.0096C 286.21 26.1644 260.647 12.7245 231.803 4.47805L 227.536 19.4811ZM 296.785 55.8202C 316.134 72.4278 330.43 93.1757 340.753 119.648L 355.275 113.954C 344.202 85.8524 327.742 62.0097 306.974 44.0096L 296.785 55.8202ZM 340.815 119.8C 351.891 146.264 357.293 177.697 357.265 215.632L 372.863 215.632C 372.834 176.366 366.87 141.912 355.214 113.802L 340.815 119.8ZM 357.265 215.632C 357.265 262.594 348.085 299.958 330.369 328.299L 343.595 336.567C 363.321 305.011 372.863 264.508 372.863 215.632L 357.265 215.632ZM 330.343 328.341C 312.939 356.723 289.83 377.546 259.35 392.308L 266.181 406.331C 298.552 390.478 324.92 366.71 343.621 336.526L 330.343 328.341ZM 256.086 403.346C 264.028 416.518 273.934 434.596 285.924 457.806L 299.782 450.646C 287.703 427.268 277.55 408.742 269.445 395.293L 256.086 403.346ZM 286.053 458.044C 298.67 480.514 311.225 505.508 323.864 533.323L 338.064 526.87C 325.297 498.78 312.444 473.194 299.654 450.408L 286.053 458.044ZM 323.961 533.528C 337.277 560.697 349.876 588.749 361.862 617.916L 376.289 611.987C 364.205 582.588 351.396 554.069 337.967 526.664L 323.961 533.528ZM 361.921 618.056C 374.558 647.182 385.126 674.792 393.755 701.229L 408.583 696.388C 399.828 669.583 389 641.289 376.23 611.848L 361.921 618.056ZM 401.169 691.01L 310.906 691.01L 310.906 706.608L 401.169 706.608L 401.169 691.01ZM 318.224 696.113C 310.815 676.004 301.352 653.125 289.938 627.727L 275.711 634.122C 287.03 659.304 296.287 681.682 303.588 701.505L 318.224 696.113ZM 290.007 627.886C 279.267 602.499 267.813 577.348 255.732 552.628L 241.718 559.477C 253.707 584.006 264.986 608.77 275.641 633.963L 290.007 627.886ZM 255.767 552.701C 243.696 527.336 231.582 503.221 219.505 480.512L 205.734 487.837C 217.727 510.385 229.684 534.188 241.683 559.403L 255.767 552.701ZM 219.548 480.595C 207.473 457.225 196.676 437.41 187.255 421.332L 173.797 429.218C 183.097 445.086 193.695 464.537 205.691 487.755L 219.548 480.595ZM 179.563 417.536C 168.995 418.852 158.216 419.827 146.974 420.484L 147.885 436.056C 159.375 435.382 170.661 434.361 181.489 433.014L 179.563 417.536ZM 146.974 420.484C 135.721 421.144 124.582 421.47 113.33 421.469L 113.33 437.067C 124.811 437.066 136.405 436.727 147.885 436.056L 146.974 420.484ZM 113.33 421.469L 88.2572 421.469L 88.2572 437.067L 113.33 437.067L 113.33 421.469ZM 80.4582 429.268L 80.4582 698.809L 96.0562 698.809L 96.0562 429.268L 80.4582 429.268ZM 88.2572 691.01L 3.35714e-05 691.01L 3.35714e-05 706.608L 88.2572 706.608L 88.2572 691.01ZM 7.79903 698.809L 7.79903 16.9711L -7.79897 16.9711L -7.79897 698.809L 7.79903 698.809ZM 88.2572 363.193L 126.368 363.193L 126.368 347.595L 88.2572 347.595L 88.2572 363.193ZM 126.368 363.193C 173.555 363.193 211.035 352.652 237.673 330.436L 227.683 318.457C 204.843 337.505 171.451 347.595 126.368 347.595L 126.368 363.193ZM 237.766 330.357C 265.006 306.907 277.585 267.864 277.585 215.632L 261.987 215.632C 261.987 265.893 249.827 299.393 227.59 318.536L 237.766 330.357ZM 277.585 215.632C 277.562 189.079 273.978 166.034 267.032 147.932L 252.482 153.554C 258.908 170.06 262.01 190.274 261.987 215.632L 277.585 215.632ZM 267.152 148.267C 260.768 129.393 250.546 113.621 237.657 102.812L 227.699 114.817C 238.88 123.974 246.711 136.154 252.361 153.22L 267.152 148.267ZM 238.01 103.123C 225.881 91.8456 210.203 83.2856 192.649 78.341L 188.462 93.3663C 204.339 97.7392 216.742 104.486 227.346 114.506L 238.01 103.123ZM 192.73 78.3639C 176.1 73.5599 156.956 71.0826 136.398 71.0666L 136.398 86.6646C 155.956 86.6485 172.918 88.8299 188.381 93.3434L 192.73 78.3639ZM 136.398 71.0666C 118.771 71.0703 102.2 72.1027 87.2082 74.1323L 89.3062 89.5886C 103.734 87.625 119.256 86.6608 136.398 86.6646L 136.398 71.0666ZM 80.4582 81.8605L 80.4582 355.394L 96.0562 355.394L 96.0562 81.8605L 80.4582 81.8605Z"/>
</defs>
</svg>
